<svg width="110" height="35" viewBox="0 0 110 35" fill="none" xmlns="http://www.w3.org/2000/svg">
<path fill-rule="evenodd" clip-rule="evenodd" d="M53.7529 34.0493H106.247C108.311 34.0493 110 32.5706 110 30.7224V3.28582C110 1.47862 108.311 0 106.247 0H53.7529C51.6888 0 50 1.47862 50 3.28582V30.7635C50 32.5706 51.6888 34.0493 53.7529 34.0493ZM61.4376 24.3483V13.3508H59.1977V24.3003H57.6251V26.4134H63.7251C66.0127 26.4134 67.7283 25.8371 68.7768 24.7325C69.8252 23.628 70.3494 21.8991 70.3494 19.4499V14.6474C70.3494 12.2462 69.8252 10.4693 68.7768 9.36475C67.7283 8.26019 66.0127 7.6839 63.7251 7.6839H57.6251V9.74894H59.1977H61.4376H63.3915C64.2017 9.74894 64.9166 9.84499 65.4884 9.98906C66.108 10.1331 66.5846 10.4213 66.9658 10.8055C67.3471 11.1897 67.633 11.7179 67.8236 12.3423C68.0143 13.0146 68.1096 13.831 68.1096 14.7915V19.3058C68.1096 20.3143 68.0143 21.1307 67.8236 21.755C67.633 22.3793 67.3471 22.9076 66.9658 23.2918C66.5846 23.676 66.0603 23.9642 65.4884 24.1082C64.9166 24.2523 64.2017 24.3483 63.3915 24.3483H61.4376ZM76.6879 24.3484H85.8857V26.4135H74.448V7.68399H85.6951V9.79707H76.6402V24.3484H76.6879ZM85.5521 15.9922V18.0573H79.0231V15.9922H85.5521ZM94.5591 24.3484L91.5091 13.1588H89.1739L92.9388 26.4135H97.2279L102.47 7.68399H100.087L95.5123 24.3484H94.5591ZM87.6012 7.68399L88.4591 10.6615H90.7942L89.9841 7.68399H87.6012Z" fill="white"/>
<path d="M11.3479 21.6971H3.62824L2.3159 26.3274H0L5.45523 7.69995H9.52092L14.9762 26.3274H12.6603L11.3479 21.6971ZM7.33368 8.65793L4.22008 19.6215H10.7561L7.64247 8.65793H7.33368Z" fill="white"/>
<path d="M17.6087 7.69995H19.7702V24.2518H29.1882V26.3274H17.6087V7.69995Z" fill="white"/>
<path d="M32 8H34.1615V24.5518H43.5795V26.6274H32V8Z" fill="white"/>
</svg>
